<!--
  K3UI Icons - Premium Icon Library
  Icon: Clock
  Version: 1.0.0
  Created by @Kam3leoN
  Website: https://k3ui.com
  License: Commercial License - https://k3ui.com/license
  Copyright © 2025 K3UI, Inc. All rights reserved.
  
  This icon is part of the K3UI icon library.
  Unauthorized use, distribution, or modification is prohibited.
-->
<svg xmlns="http://www.w3.org/2000/svg" viewBox="0 0 640 640">
    <path fill="currentColor" d="M320 64C461.4 64 576 178.6 576 320C576 461.4 461.4 576 320 576C178.6 576 64 461.4 64 320C64 178.6 178.6 64 320 64zM296 184L296 320C296 328 300 335.5 306.7 340L402.7 404C413.7 411.4 428.6 408.4 436 397.3C443.4 386.2 440.4 371.4 429.3 364L344 307.2L344 184C344 170.7 333.3 160 320 160C306.7 160 296 170.7 296 184z"/>
</svg>